<svg width="55" height="55" viewBox="0 0 55 55" fill="none" xmlns="http://www.w3.org/2000/svg">
<path d="M0 10.001C0 4.47813 4.47715 0.000976562 10 0.000976562H45C50.5228 0.000976562 55 4.47813 55 10.001V45.001C55 50.5238 50.5228 55.001 45 55.001H10C4.47715 55.001 0 50.5238 0 45.001V10.001Z" fill="#0E1121"/>
<path fill-rule="evenodd" clip-rule="evenodd" d="M22.4213 38.6465C26.5387 40.0965 34.524 41.4869 40.3271 33.654C40.7938 33.0241 41.2463 32.3345 41.6816 31.5806L33.1151 26.6347C32.934 27.3361 32.6608 28.1562 32.2929 29.0155C30.7525 32.613 27.5518 36.8974 22.4993 36.0344C22.345 36.008 22.189 35.9768 22.0312 35.9407L19.724 37.4641C19.724 37.4641 20.3811 37.8435 21.4922 38.2947C21.5963 38.3369 21.7044 38.3798 21.8163 38.4231C22.0071 38.4969 22.2091 38.5718 22.4213 38.6465ZM28.6166 37.2993C30.3009 37.306 32.0616 36.9976 33.764 36.1559C35.2317 35.4302 36.7459 34.2642 38.1695 32.4083L34.4479 30.2597C33.7557 31.8151 32.7887 33.472 31.515 34.8968C30.701 35.8073 29.7327 36.6479 28.6166 37.2993Z" fill="url(#paint0_linear)"/>
<path fill-rule="evenodd" clip-rule="evenodd" d="M21.0939 18.8193C17.7795 21.66 12.5827 27.8804 16.4646 36.8224C16.7768 37.5415 17.1477 38.2782 17.583 39.0322L26.1495 34.0863C25.6326 33.5788 25.059 32.9322 24.4988 32.1839C22.1534 29.0511 20.0434 24.137 23.3171 20.193C23.4171 20.0725 23.522 19.953 23.6322 19.8344L23.4666 17.0745C23.4666 17.0745 22.8094 17.4539 21.8631 18.1906C21.7745 18.2596 21.6833 18.3318 21.5899 18.4071C21.4306 18.5354 21.2647 18.6729 21.0939 18.8193ZM19.163 24.8582C18.315 26.3135 17.7017 27.9925 17.5795 29.8877C17.4741 31.5216 17.7268 33.4159 18.6222 35.5767L22.3438 33.4281C21.3429 32.0509 20.3915 30.385 19.7944 28.5696C19.4128 27.4094 19.169 26.1505 19.163 24.8582Z" fill="url(#paint1_linear)"/>
<path fill-rule="evenodd" clip-rule="evenodd" d="M25.5198 14.6373C35.2048 15.7465 37.9934 23.3572 38.7963 27.6479C38.8377 27.8691 38.8738 28.0815 38.9054 28.2836C38.9238 28.4022 38.9407 28.5172 38.9562 28.6285C39.0422 29.2485 39.0833 29.7517 39.103 30.091L36.3386 28.495C34.4219 24.0452 29.2975 23.4626 25.5198 23.9144C24.5917 24.0254 23.7449 24.1989 23.0469 24.3928V14.501C23.9175 14.501 24.741 14.5481 25.5198 14.6373ZM30.968 19.0702C32.5482 20.1236 33.6956 21.4942 34.5319 22.9563C33.4098 22.3154 32.1977 21.8971 31.0021 21.6474C29.1313 21.2568 27.2129 21.2478 25.5198 21.426V17.1287C27.8389 17.4336 29.6057 18.162 30.968 19.0702Z" fill="url(#paint2_linear)"/>
<defs>
<linearGradient id="paint0_linear" x1="38.0005" y1="30.001" x2="21.0005" y2="38.501" gradientUnits="userSpaceOnUse">
<stop stop-color="#5F2EEA"/>
<stop offset="1" stop-color="#972EEA"/>
</linearGradient>
<linearGradient id="paint1_linear" x1="19.5005" y1="36.001" x2="20.5005" y2="19.501" gradientUnits="userSpaceOnUse">
<stop stop-color="#5F2EEA"/>
<stop offset="1" stop-color="#972EEA"/>
</linearGradient>
<linearGradient id="paint2_linear" x1="24.001" y1="18.501" x2="39.001" y2="30.001" gradientUnits="userSpaceOnUse">
<stop stop-color="#5F2EEA"/>
<stop offset="1" stop-color="#972EEA"/>
</linearGradient>
</defs>
</svg>
